<svg xmlns="http://www.w3.org/2000/svg" version="1.0" width="100%" height="100%" viewBox="0 0 1440 1440"><path fill="#eee" d="M670 912.1c-5.6 1.6-14 8-20.4 15.5-4.3 5.1-7.9 11-13.4 22.4-22.4 46.7-36.4 86.4-49.7 141.5-9.4 38.7-11.2 51.2-9.5 65.1 2.7 21.8 11.7 29 36 28.7 9.3 0 13.2-.6 20.4-2.7 21.9-6.5 48.2-22.4 74.4-44.9 6.1-5.2 10.1-8 11.7-8 1.6 0 8.7 4.8 20.2 13.5 34 25.7 48.7 34.7 65.3 39.9 6.4 2.1 9.6 2.4 22 2.4 14 0 14.7-.1 20.3-2.9 11.2-5.7 14.9-14.3 15-34.6 0-11.9-.4-15.6-3.7-31-11.8-55.6-26.8-103.3-47.6-152-9.6-22.5-18-36.2-27.9-45.2-7.8-7.2-12.7-9.2-21-8.6-13.5 1-23.5 8.8-36.2 28.3-3.4 5.3-6.5 9.3-6.9 8.8-.4-.4-3.9-5.6-7.9-11.4-9.6-14.3-14.2-19.3-20.6-22.4-6-3-14.9-4-20.5-2.4zm228.7-94.7c-11.3 2.5-19.3 11.3-21.7 24.1-1.4 7.2-.8 15.1 2 29.7 1 5.1 1.7 9.4 1.5 9.6-.2.2-5.6-.7-12.1-1.9-6.7-1.2-16.1-2.3-21.4-2.3-8.4 0-10.1.3-14.6 2.6-6.6 3.5-11.7 9.3-13.9 15.8-2.3 6.9-1.6 22.5 1.6 36 8 34.3 39.4 100 75.2 157.2 14.2 22.7 22.7 34 30.3 40.1 12.7 10.3 23.2 13 32.6 8.4 10-4.9 21-15.9 27.5-27.5 9.7-17.3 19.1-54.3 20.8-82.4.8-12.5 2-17.5 4.3-18.2.9-.3 7.7-1 15-1.6 35.8-2.8 71-12.5 88.9-24.3 8.5-5.7 17.3-14.9 21-22 3.9-7.6 3.9-16.2-.2-23.7-5-9.3-20-23.3-36.5-34.2-39.2-25.8-83.4-49.6-125.6-67.5-37.6-16-59.6-21.3-74.7-17.9zM521 817c-9.3 1.1-17.5 3.4-33.5 9.5-49.3 18.6-102.2 46-147.5 76.4-16.6 11.2-32.4 26.3-37.3 35.6-3 5.8-2.8 13.6.5 20.1 3.2 6.1 14.6 17.8 22.9 23.5 18.1 12.3 47.8 20.9 82.4 23.9 20 1.7 21.4 2 22.4 3.8.5.9 1.2 6 1.5 11.2 2.4 32.9 10.6 67.5 20.4 86.5 5.6 10.8 18.6 24.6 26.7 28.5 17.2 8.2 35.1-2.8 55.7-34 31.9-48.5 58.6-99.8 77.5-149 9.1-23.9 12.4-45.1 8.9-57.3-4.9-16.9-22.2-23.1-49.8-17.7-14 2.7-13.8 2.7-12.8-1.3 1.6-6 4.2-33.2 3.6-37.5-1.6-12.1-11.2-20.3-25.9-22.2-3.9-.5-7.6-.9-8.2-.8-.5 0-3.9.4-7.5.8zm621-241.3c-62.6 10.3-113.8 24.6-167.4 47-30.6 12.7-43.4 20.1-53.6 30.9-12.9 13.6-13.8 30.6-2.2 42.8 2 2.1 9 7.8 15.5 12.6l11.8 8.8-8.3 6.3c-15.9 12-21.3 17.3-24.3 24.1-7.7 17-.9 31.5 21.7 46.2 25.6 16.7 89.3 40.2 150.4 55.5 38.3 9.6 43.4 10.5 62 10.5l17 .1 6-3c6.5-3.4 11.4-9.4 13.6-16.8 1.8-6.3 1.5-25-.6-32.5-5.6-20.8-24.2-51.2-47.2-77.5-11.9-13.6-11.2-12.2-8.2-15.4 4.2-4.5 26.3-33.5 35.2-46.3 14.3-20.3 20.7-35.9 22.2-53.9 1.2-13.9-3-28.5-9.3-32.8-7.6-5.3-23.7-8.4-34.3-6.6zm-865.6.6c-11.9 3.1-19.1 10.4-21.5 21.6-1.6 7.7-.6 25.8 1.9 34.3 4.9 16.4 12.1 28.4 36.3 60.9 11.4 15.3 16.9 23.5 16.9 25.2 0 1.7-3.5 7-10.7 16.2-18.4 23.3-28.1 37.5-34.8 51-8.2 16.4-10.6 25.4-10.8 40-.2 17.1 3.9 26.7 13.5 31.6 9.5 4.9 33.5 4.4 60.4-1.1 50.1-10.3 105.1-27.8 150.1-47.7 35.5-15.7 50.8-30.2 50.7-48.3 0-12.4-4.5-18.6-23.3-32.2-6.9-5-12.8-9.3-13.1-9.6-.3-.2.3-.9 1.3-1.6 21.5-13.1 29.2-20.1 32.7-29.2 7.6-20.5-5.3-38.3-39.5-54.9-41.7-20.3-112.4-43-169.5-54.5-13.2-2.7-33.5-3.5-40.6-1.7zM743 650.1c-14.8 10.7-35 10.3-51.1-1.2-1.7-1.2-3.1-2-3.3-1.8-.1.2-.8 3.1-1.5 6.4-3.8 17.9-15.8 30.3-33.6 34.6-2.7.7-5.2 1.3-5.3 1.5-.2.1 1 2.3 2.8 4.9 1.7 2.5 4.3 7.1 5.8 10.3 2.4 5 2.7 6.9 2.7 16.2 0 9.8-.2 11-3.3 17.4-1.8 3.9-4.8 8.9-6.8 11.2-1.9 2.4-3.1 4.5-2.7 4.7.5.2 2.9.7 5.4 1.1 6.9 1 18.2 6.8 23.5 12.1 5.4 5.5 10 14.8 11.6 23.6.6 3.5 1.3 6.5 1.4 6.7.1.2 3.1-1.7 6.7-4.1 8.9-6.1 15.4-8.2 25.2-8.1 9.1.1 16.4 2.4 24.5 7.9 5.5 3.7 5.3 3.9 6.5-5 1.1-8.1 6.7-18.6 12.7-23.9 5.5-4.8 16.6-10.1 23.6-11.2 4.5-.7 5.1-1.4 2.7-3.4-.8-.7-2.8-3.5-4.4-6.4-9.1-16.3-8.5-32.2 1.9-47.8 2.2-3.3 4-6.1 4-6.3 0-.1-2.8-.8-6.2-1.5-9-1.7-16.1-5.4-22.4-11.5-6.7-6.6-11.4-16-12.1-24.5-.4-3.5-1-6-1.7-5.9-.6 0-3.6 1.9-6.6 4zm-14.5 29c17.8 3.3 31.7 17.6 34.5 35.6 2.1 12.8-2.7 27.1-12.2 36.6-20.3 20.3-56.1 14.8-68.6-10.6-16.1-32.6 10.7-68.2 46.3-61.6zm-34.9-126.5c-28.2 4.4-56.7 17-78.6 34.8-31.5 25.6-51.4 58.3-60.2 98.6-2 9.2-2.2 13.3-2.2 33 0 19.3.3 23.9 2.2 32.5 6.6 30.7 20.8 58.5 41.4 80.9 24.4 26.7 58.5 45.3 94.7 51.7 16.2 2.9 42 2.9 58.1.1 59.6-10.6 109.5-53 128.9-109.4 7.5-21.9 8.6-29.1 8.6-55.8-.1-25.7-1.1-32.9-7.5-52.5-19.7-60.7-73.2-105.6-136.5-114.5-10-1.4-38.4-1.1-48.9.6zm37.7 22.4c15.9 4.9 27.3 19.1 29.3 36.5l.7 5.6 2.1-1.9c3.6-3.3 9.9-6.8 16.3-9.2 5.3-1.9 7.7-2.2 15.6-1.8 8 .3 10.3.8 15.8 3.5 11 5.4 19 13.8 22.5 23.5 2.1 5.8 2 18.1-.1 25.4-.9 3.2-3.4 9.2-5.6 13.2-2.1 4.1-3.9 7.5-3.9 7.8 0 .2.9.4 1.9.4 3.5 0 16.5 5.2 21.8 8.7 12.7 8.4 18.3 22.4 16.3 40.3-1.5 13-6.8 21.7-17.5 28.5-5.2 3.3-16 7.5-19.4 7.5-3.4 0-3.2 1.7.9 8.1 8.6 13.4 10.4 29 4.5 41.3-3.5 7.3-13.7 18.3-20.7 22.1-10.1 5.5-23.9 4.5-40.4-3-4.2-1.9-7.8-3.5-7.9-3.5-.1 0-.8 2.1-1.5 4.7-2 8.3-8.6 20.9-13.5 26.2-8.3 8.8-20.9 12.7-35.6 11-16.4-1.9-29.5-15.4-34.6-35.5-1-3.8-1.9-7.1-2-7.3-.2-.3-1.6.7-3.1 2.1-9.8 9.2-25.7 12.9-39.5 9.3-12.7-3.3-19.4-9-25.9-22.2-3.6-7.3-4.2-9.4-4.6-16.7-.5-10.5 1.4-17.5 7.4-27.2 2.4-4 4.4-7.4 4.4-7.7 0-.3-3-1.5-6.7-2.7-16.8-5.5-27.7-14.9-31.4-27.2-3-9.9-2.4-22.8 1.6-31.6 4.8-10.7 16.7-19.7 32.2-24.2l4.1-1.3-4.4-6.4c-8.6-12.5-10.5-27-5.5-40.4 3.1-8.2 12.1-18.4 20.1-22.8 6.3-3.5 6.8-3.6 17-3.5 10.9.1 16.6 1.6 28.2 7.5 2.2 1.1 4.1 1.9 4.2 1.7.2-.2.8-2.4 1.5-5.1 2.4-10 5.3-15.8 10.6-21.5 11.7-12.6 28.5-17.2 44.8-12.2zm206.8-272c-5.7 2.6-15.6 10.5-20.7 16.7-5 5.9-21.4 30.4-31.6 47.3-22.8 37.6-43.8 79.8-58.4 117.2-6.3 16.2-9 26.1-10.6 38.4-3.1 25.5 8.9 41.4 31.3 41.4 5.3 0 26.8-3.3 30.3-4.6 1.4-.5 1.6-.2 1.1 1.7-4.3 18.8-4.8 31.6-1.4 42.4 2.9 9.4 8.8 15.5 17.4 18 8.1 2.4 23.5 1.6 36.7-1.9 35.7-9.4 100.6-41 158.1-77 28.4-17.7 38.3-26.5 45.3-40.3 6.4-12.8 4-20.8-10.9-35.7-7.7-7.6-10.9-10-19.2-14.3-18.2-9.4-37.1-13.8-77.5-18.4-10.7-1.3-19.8-2.5-20.2-2.8-.4-.3-2.1-11.9-3.8-25.6-4.9-39.7-8.7-56-16.4-71.3-6.8-13.6-18.4-26.3-28.1-30.8-6.4-3-15.2-3.2-21.4-.4zM484 301.6c-12.9 4.7-26.3 19.4-34.1 37.4-8.9 20.7-16.9 60-16.9 83.2 0 9.9-.2 10-19.5 12.1-23.4 2.6-46.7 6.4-57.4 9.2-18.4 5-33.2 13.5-44.7 25.8-15.2 16.3-14.1 29.9 4 48 26.5 26.7 130 82.9 184.1 100.1 14.6 4.6 16.9 5 28.5 5 14 .1 20.3-1.8 26.8-7.8 9.4-8.6 11.1-18.1 7.2-40.6-2.9-16.5-3.8-15.1 8.8-12.4 26.2 5.7 41.4 1.4 49.1-14.1 2.9-5.9 3.9-18.6 2.2-29.3-4.3-27.3-34.6-95.4-65.4-146.7-10.4-17.3-28.3-43.7-34.5-51-14.3-16.7-26.9-23-38.2-18.9zm118.5-47.5c-4 .5-9.4 2.1-12.5 3.7-4.7 2.3-5.9 3.5-8.3 8.2-6.2 12.5-6.4 28.1-.7 56.3 10.1 50.3 26.9 104.5 45.7 148.2 18.2 42.1 32.4 57.9 51.8 57.9 6.1 0 8.2-.5 13.8-3.2 7.1-3.5 8.9-5.5 20.7-22 3.6-5 6.7-9.1 7-9.1.3 0 1.7 1.9 3.2 4.2 1.5 2.3 6.2 8.7 10.5 14.2 9 11.5 14.8 15.3 25 16.2 22.4 2 38.6-18.1 61.8-76.7 12.4-31.4 23.5-67.4 33.4-108.1 7.4-30.2 9.1-39.8 9.1-51.7 0-18.5-4.8-30.2-14.5-35.2-4.7-2.4-5.8-2.5-20-2.4-14.1 0-15.5.2-24.2 3.2-23.6 8.1-48.1 23.6-73.9 46.9-5.5 4.9-8.9 7.3-10.6 7.3-1.7 0-6.4-3.1-13.9-9.1-45.7-36.7-65.3-47.6-88.9-49.2-4.1-.3-10.6-.1-14.5.4zm92-192.5c-89.7 4.8-170 24.2-250.2 60.4-63.8 28.8-131.4 75.3-184.7 127-54.5 52.9-106.9 127.3-137.6 195.3-40.5 90-60.4 180.4-60.4 275.7 0 95.3 19.9 185.9 60.4 275.7 28.8 63.8 75.3 131.4 127 184.7 52.9 54.5 127.3 106.9 195.3 137.6 90 40.5 180.4 60.4 275.7 60.4 95.3 0 185.7-19.9 275.7-60.4 68-30.7 142.4-83.1 195.3-137.6 51.7-53.3 98.2-120.9 127-184.7 40.5-89.8 60.4-180.4 60.4-275.7 0-95.3-19.9-185.9-60.4-275.7-34.2-75.7-93.2-156.3-154.5-211.1-104.5-93.3-226.7-149.4-363-166.7-30.8-3.9-81.2-6.2-106-4.9zm-79 112.9c19.8 3 42.1 6.6 49.5 8 31 5.9 39.1 6.7 60 6.2 16-.4 22.6-1.1 36.5-3.6 56.4-10.3 90.7-15.7 106.7-16.7 23.8-1.4 44.2 7.7 58.1 26.1 5.9 7.8 7.1 9 9.5 8.7 15.3-1.4 25.6-1.3 32.4.2 13 2.9 24.3 9.2 35.7 20 7.6 7.3 10.5 11.1 29.6 38.1 32 45.2 59.5 80.8 69.2 89.1 5.4 4.8 30.2 22.9 82.8 60.8 29.2 21 38 29.6 45.8 45.2 8.3 16.5 9.8 34 4.2 48.5-.4 1.2 1.1 2.6 6.1 5.5 20.8 12.2 32.2 40 29.4 72.1-.5 5.6-2.9 21.3-5.4 34.9-11.4 62.6-16.6 96-16.6 106.2 0 9.3 12.5 87.3 19.7 122.7 7.6 37.6-1 65.2-26.1 84-5.2 3.9-6.6 5.4-6.2 7 .3 1.1 1.2 4.9 2.1 8.5 3.8 15-2.8 36.3-16.7 53.7-7 8.9-17.1 17.3-41.4 34.7-41.8 29.9-79.9 58.9-87.9 67-4.4 4.5-11.4 12.8-15.5 18.6-22.2 31.3-51.3 71.8-58.2 81-17.1 22.8-32 34.2-50.3 38.5-7.7 1.9-21.3 1.9-29 .1-5.4-1.3-6-1.3-7.1.2-4.5 6.3-12.3 15.3-16.2 18.6-2.6 2.1-8.7 5.8-13.7 8.2-19.3 9.3-36.2 9.7-79.5 1.9-16.9-3-65.1-9.8-82.5-11.6-14.6-1.5-39.3-1.5-49.5-.1-52.9 7.7-72.2 10.7-86.5 13.4-14.4 2.7-19.4 3.2-32.5 3.2-13.1 0-16.8-.3-24-2.3-18.4-4.9-32.3-14.6-39.6-27.6l-3.5-6.3-4.8 1.9c-11 4.1-23.7 3.4-38.2-2.2-10-3.8-19.7-10.4-29.2-19.7-8.6-8.4-12.1-13-37.7-49.2-26.9-37.9-47.1-64.1-55.1-71.5-9.3-8.6-35.7-28.6-66.4-50.4-26.5-18.8-47.4-34.8-54.1-41.6-12-12.1-18.4-25.2-20.6-42.1-.9-7-.8-9.8.7-17.4 1-5 1.6-9.2 1.4-9.4-25.6-19.1-34.9-36.9-34.9-66.6 0-8.9 1.2-20 5-45.6 11.6-79.4 14-98 14-107.9 0-8.1-1.8-20.9-10-71.5-3.2-20.1-6.7-41.5-7.6-47.5-2.6-16.5-2.4-35.9.5-46 5.2-18.6 11.8-27.7 30.8-42.5l3.2-2.5-1.9-5.5c-3.9-11-2.2-25.6 4.5-39.7 8.8-18.8 18.1-28.3 48.5-49.6 46.4-32.6 82.7-60.4 93.1-71.4 7.7-8.2 13.2-15.5 43.5-58 38.8-54.4 43.2-59.7 57.5-69 14.8-9.6 34.7-13.5 51.1-10l6.7 1.4 4-6.2c4.6-7.1 13.6-15.9 20.3-19.8 10.9-6.3 26.8-9.7 42.8-8.9 4.1.2 23.7 2.8 43.5 5.7zM1440 719.99999a719.99999 719.99999 0 0 1-720.00001 719.9999812A719.99999 719.99999 0 0 1 0 719.99999 719.99999 719.99999 0 0 1 719.99999 0 719.99999 719.99999 0 0 1 1440 719.99999Z"/></svg>
