<svg xmlns="http://www.w3.org/2000/svg" width="383.31" height="383.98" viewBox="0 0 101.42 101.59"><g fill-rule="evenodd"><path fill="#666" d="M47.37.04c-4.04.4-6.35.77-8.93 1.41A50.85 50.85 0 0 0 .76 59.55c4.77 27.62 31.04 46.07 58.77 41.27a50.83 50.83 0 0 0 41.07-40.84C106.16 28.76 82.76.31 51.29.03a84.62 84.62 0 0 0-3.92.01m8 3.85C76.13 5.95 93.3 21.52 97.21 41.87c5.54 28.82-16.14 55.54-45.58 56.15-29.87.62-52.89-26.3-47.54-55.6C8.5 18.31 30.93 1.46 55.36 3.88m5.61 6.46c-2.07.55-9.34 1.52-10.84 1.44-2.07-.1-5.5-.66-7.25-1.18-.81-.24-3.5-.17-4.33.11a4.32 4.32 0 0 0-2.03 1.8c-.37.65-.32.63-.9.42-1-.36-2.26-.14-3.86.65-1.6.8-2.92 2.2-6.3 6.65-2.64 3.49-2.6 3.46-7.19 6.54-3.53 2.37-4.23 2.98-4.6 3.96-.3.77-.34 2.2-.07 3.17.23.88.26.8-.56 1.4-1.63 1.18-2.25 2.03-2.45 3.31-.25 1.58.1 5.99.58 7.45.87 2.58.78 5.3-.37 11.37-.98 5.13-.6 6.55 2.23 8.57.21.16.22.2.11.9-.41 2.64 1.42 5.36 5.15 7.67 3.6 2.23 8.74 7.52 10.56 10.88.9 1.66 2.69 2.5 5.18 2.44l1.25-.02.24.47c.5.97 1.75 1.81 3.12 2.1 1.47.31 4.27.22 5.03-.16 2.68-1.37 10.24-1.56 14.92-.4 4.47 1.13 7.17.29 7.95-2.46.02-.09.2-.06.6.1 2.38.96 6.2-.87 7.5-3.6 1.24-2.63 6.03-8.06 8.14-9.23 5.96-3.32 7.72-5.56 6.48-8.2-.2-.4-.34-.74-.32-.75 1.95-1.27 2.44-1.83 3.2-3.64.59-1.39.53-2.28-.54-8.32-.7-3.91-.63-5.5.45-10.9.87-4.33.25-7.09-1.77-7.93-.8-.33-.77-.28-.74-1.02.1-2.82-1.71-5.63-5-7.78a37.09 37.09 0 0 1-3.78-2.96 48.29 48.29 0 0 0-1.86-1.54c-.65-.48-.96-.85-2.32-2.8-3.88-5.54-5.48-6.68-8.3-5.92-.79.21-.77.22-1-.29-.8-1.67-4.13-2.88-6.3-2.3m-16.4 4.37c1.18.4 2.34 1.18 3.74 2.5.7.68 1.53 1.43 1.84 1.68l.55.47.93-.89c4.2-4.03 8.74-5.08 9.59-2.21.92 3.1-2.7 16.35-5.18 18.94-1.6 1.69-3.33 1.4-4.76-.78-.6-.93-.62-.93-.89-.4-.8 1.56-2.35 2.6-3.25 2.18-1.64-.78-4.95-7-6.08-11.43-.7-2.7-.95-7.16-.48-8.08 1.04-2 2.21-2.59 4-1.98m28.87 3.66c1.05.83 1.63 2.79 1.64 5.57 0 1.04.02 2.24.03 2.66l.03.75 1.08.08c3.46.23 6.2 1.12 7.62 2.47 1.53 1.45 1.45 2.7-.27 4.32-2.67 2.52-12.05 7.24-15.66 7.87-2.63.46-4.07-1.26-3.37-4.03l.22-.95c0-.04-.27-.01-.6.07-1.47.34-2.91.12-3.52-.53-1.23-1.34 1.92-10.24 4.99-14.07a43.07 43.07 0 0 1 3.89-4.03c1.16-.74 3.11-.83 3.92-.18m-39.75.34c2.8 1.42 9.43 14.68 9.01 18.01-.25 2.04-1.75 2.83-4.18 2.2-1.05-.27-.98-.32-.78.52.32 1.34.06 2.85-.58 3.43-1.33 1.2-10.48-2.23-14.04-5.26-2.78-2.37-4.18-3.96-4.39-4.97-.67-3.27 1.07-4.46 6.47-4.43 3.06.02 2.95.05 2.95-.74 0-5.43 2.93-10.07 5.54-8.76m18.85 19.2c11.6 1.74 15.42 16.45 6.1 23.47-7.84 5.9-19.13 1.4-20.82-8.33-1.5-8.59 6.13-16.44 14.72-15.14M20.6 40.4c4.7 1.04 10.74 3.13 13.2 4.57 3.02 1.76 3.08 4.16.16 5.85l-.72.4.67.44c1.66 1.09 2.42 2.42 1.87 3.3-.91 1.48-6.3 4.26-10.46 5.4-3.23.9-7.92 1.13-9.2.48-3.17-1.62-2.81-4.07 1.18-8.08 2.04-2.05 1.95-1.8.98-2.85-3.8-4.13-4.82-8.68-2.15-9.63.76-.27 2.96-.22 4.47.12m29.83-.1a3.24 3.24 0 0 0-2.48 2.51l-.12.56-.47-.42c-2.87-2.52-7.12 1.52-4.64 4.4.45.54.45.57.05.57-3.28 0-3.96 5.17-.81 6.2l.58.2c.02.02-.1.25-.28.5-2.19 3.18 2.13 6.99 4.8 4.23.4-.42.47-.42.47.02 0 .87.87 2.02 1.9 2.53 1.84.9 4.45-.66 4.45-2.64 0-.56.02-.56.49-.04 2.75 3.05 7.4-1.17 4.76-4.31l-.28-.32.54-.18c2.57-.86 2.7-4.8.2-5.91l-.51-.23.31-.47a3.22 3.22 0 0 0-1.33-4.67c-1.03-.5-2.82-.25-3.43.48-.22.26-.3.2-.37-.34a3.25 3.25 0 0 0-3.83-2.67m35.48.63c.77.38 1.82 1.3 2.01 1.77.56 1.34-.46 3.66-2.57 5.83-.55.57-1.27 1.35-1.6 1.75l-.59.72.7.7c4.2 4.33 5.29 8.84 2.39 9.83-2.88.97-16.58-2.81-19.03-5.26-1.59-1.59-1.28-3.26.85-4.67 1-.66 1-.62.23-1.05-1.12-.64-1.96-1.63-2.1-2.5-.3-1.88 8.34-6.44 13.5-7.12 3.23-.42 5.37-.42 6.2 0m-36.22 5.43c.96.5 2.72.27 3.53-.47l.22-.2.07.45a3.37 3.37 0 0 0 1.8 2.5c.52.26.58.34.33.54-.76.63-.76 2.7 0 3.8l.36.52-.69.34c-1.05.52-1.84 1.7-1.84 2.73 0 .24-.04.22-.58-.27a3.13 3.13 0 0 0-4.22-.12c-.58.51-.56.51-.64-.02-.19-1.17-1.62-2.63-2.58-2.63-.2 0-.15-.15.13-.43.91-.85.9-2.94 0-4-.46-.53-.45-.55.04-.55 1.12 0 2.37-1.1 2.72-2.37l.19-.7.35.32c.2.18.56.42.8.56m-.32 1.79a3.29 3.29 0 0 0-1.73 4.24c1.33 3.02 5.92 2.25 6.13-1.03a3.18 3.18 0 0 0-4.4-3.21m17.62 10.88c3.68.7 8.87 2.9 11.36 4.82.87.67 3.28 2.8 3.74 3.33a4.7 4.7 0 0 1 1.02 3.18c0 1.76-2.58 2.94-6.5 2.97-.88 0-1.88.04-2.23.08l-.63.07-.07 1.42c-.27 5.76-2.66 9.45-5.25 8.15-2.26-1.13-7.61-9.98-9.28-15.34-1.1-3.54.64-5.5 4.04-4.53.68.2.67.2.47-.47-.38-1.35-.16-3.03.47-3.59.4-.36 1.29-.38 2.86-.09m-29.91.22c1.5.38 2.1 2.19 1.39 4.28-.26.76-.29.73.47.59 1.54-.29 2.86-.06 3.43.6 1.18 1.33-1.75 9.26-4.96 13.44-.96 1.24-3.89 4.16-4.52 4.5-1 .52-2.85.64-3.5.22-1.32-.85-1.8-2.48-1.76-5.96.02-1.37 0-2.69-.03-2.93l-.06-.43-1-.07c-4.19-.3-7.46-1.81-8.4-3.9-.85-1.85 1.46-3.89 7.98-7.06 5.72-2.78 9.03-3.77 10.96-3.28m12.16 7.02a5.32 5.32 0 0 1 1.7 1.84c.45.79.4.78.77.13.69-1.22 1.92-2.23 2.72-2.23 1.43 0 4.32 4.78 6.03 9.95 1.06 3.22 1.5 8.3.83 9.74-1.45 3.15-4.09 2.91-7.81-.7-.61-.6-1.37-1.3-1.68-1.56l-.57-.48-.87.82c-4.26 4.02-8.72 5.03-9.7 2.18-.78-2.26 1.62-11.96 4.27-17.24 1.18-2.36 2.76-3.25 4.3-2.45"/><path fill="#eee" d="M56.21.24C82 3.4 100.9 24.12 101.37 49.72a50.66 50.66 0 0 1-59.48 51.1C14.45 96.08-3.93 69.82.75 42.04A50.82 50.82 0 0 1 35.1 2.42C39 1.15 42 .57 47.37.04a94.8 94.8 0 0 1 8.84.2m-8.84 3.54C20.11 5.88.4 29.82 3.72 56.78c2.65 21.48 20.12 38.65 41.7 40.98 31.82 3.45 57.82-24.6 51.8-55.9-4.47-23.24-26.26-39.9-49.85-38.08M64.3 10.5c1.38.37 2.53 1.2 2.98 2.15.24.5.22.5 1 .29 2.83-.76 4.43.38 8.31 5.93 1.36 1.94 1.67 2.3 2.32 2.8.3.21 1.14.9 1.86 1.53a37.1 37.1 0 0 0 3.78 2.96c3.29 2.15 5.1 4.96 5 7.78-.03.74-.07.7.74 1.02 2.02.84 2.64 3.6 1.77 7.93-1.08 5.4-1.15 6.99-.45 10.9 1.07 6.04 1.13 6.93.54 8.32-.76 1.81-1.25 2.37-3.2 3.64-.02.01.13.35.32.75 1.24 2.64-.52 4.88-6.48 8.2-2.1 1.17-6.9 6.6-8.15 9.23-1.3 2.73-5.1 4.56-7.5 3.6-.4-.16-.57-.19-.6-.1-.77 2.75-3.47 3.59-7.94 2.47-4.68-1.17-12.24-.98-14.92.39-.76.38-3.56.47-5.03.16-1.37-.29-2.62-1.13-3.12-2.1l-.24-.47-1.25.02c-2.5.06-4.28-.78-5.18-2.44-1.82-3.36-6.95-8.65-10.56-10.88-3.73-2.3-5.56-5.03-5.15-7.67.1-.7.1-.74-.1-.9-2.85-2.02-3.22-3.44-2.24-8.57 1.15-6.07 1.24-8.8.37-11.37a25.14 25.14 0 0 1-.58-7.45c.2-1.28.82-2.13 2.45-3.3.82-.61.8-.53.56-1.41-.27-.97-.24-2.4.06-3.17.38-.98 1.08-1.59 4.61-3.96 4.59-3.08 4.55-3.05 7.2-6.54 3.37-4.44 4.7-5.85 6.3-6.65 1.59-.8 2.86-1 3.86-.65.57.2.52.23.9-.42a4.32 4.32 0 0 1 2.02-1.8 12.1 12.1 0 0 1 4.33-.1 39.5 39.5 0 0 0 7.25 1.17c1.5.08 8.77-.9 10.84-1.44.53-.14 2.6-.05 3.32.15m-22 4.19a5.99 5.99 0 0 0-1.7 2c-.47.93-.21 5.38.48 8.1 1.13 4.42 4.44 10.64 6.08 11.42.9.42 2.46-.62 3.25-2.18.27-.53.29-.53.9.4 1.42 2.18 3.14 2.47 4.75.78 2.47-2.59 6.1-15.85 5.18-18.94-.85-2.87-5.4-1.82-9.6 2.21l-.92.89-.55-.47c-.31-.25-1.14-1-1.84-1.67-2.4-2.29-4.64-3.23-6.03-2.54m29.2 3.29c-1.56.14-1.9.35-3.83 2.39a28.14 28.14 0 0 0-7.17 13.88c-.52 2.6.76 3.63 3.69 2.94.33-.08.6-.11.6-.07l-.22.95c-.7 2.77.74 4.49 3.37 4.03 3.6-.63 13-5.35 15.66-7.87 1.72-1.63 1.8-2.87.27-4.32-1.42-1.35-4.16-2.24-7.62-2.47l-1.08-.08-.03-.75-.03-2.66c-.02-4.32-1.16-6.2-3.61-5.97m-39.6.67c-2.04.97-3.72 4.96-3.72 8.83 0 .8.11.76-2.95.74-5.4-.03-7.14 1.16-6.47 4.43.21 1.01 1.61 2.6 4.39 4.97 3.56 3.03 12.7 6.46 14.04 5.26.64-.58.9-2.1.58-3.43-.2-.84-.27-.8.78-.52 2.43.63 3.93-.16 4.18-2.2.2-1.62-1.1-5.32-3.66-10.35-3.3-6.5-5.28-8.63-7.17-7.73m16.97 19.28c-10.59 1.64-14.91 14.53-7.44 22.15 8.22 8.38 22.47 2.55 22.46-9.2a13.14 13.14 0 0 0-15.02-12.95m-32.73 2.35c-2.67.95-1.66 5.5 2.15 9.63.97 1.05 1.06.8-.98 2.85-4 4.01-4.35 6.46-1.18 8.08 1.28.65 5.97.41 9.2-.48 4.17-1.14 9.55-3.92 10.46-5.4.55-.88-.21-2.21-1.87-3.3l-.67-.43.72-.41c2.92-1.69 2.86-4.09-.15-5.85-2.47-1.44-8.51-3.53-13.21-4.57-1.51-.34-3.71-.4-4.47-.12m36.3.25c.92.4 1.67 1.4 1.83 2.44.08.54.15.6.37.34.6-.73 2.4-.98 3.43-.48a3.22 3.22 0 0 1 1.33 4.67l-.31.47.5.23c2.51 1.1 2.38 5.05-.2 5.9l-.53.19.28.32a3.25 3.25 0 0 1-1.2 5.09c-1.13.51-2.7.17-3.56-.78-.47-.52-.49-.52-.49.04 0 1.98-2.61 3.53-4.44 2.64-1.04-.51-1.9-1.66-1.9-2.53 0-.44-.08-.44-.48-.02-2.67 2.76-6.99-1.05-4.8-4.23.18-.25.3-.48.28-.5a6.08 6.08 0 0 0-.58-.2c-3.15-1.03-2.47-6.2.81-6.2.4 0 .4-.03-.05-.56-2.48-2.9 1.77-6.93 4.64-4.41l.47.42.12-.56a3.2 3.2 0 0 1 4.47-2.28m29.14.2c-2.6.23-3.96.53-6.2 1.35-5.17 1.9-9.37 4.64-9.15 5.98.13.86.97 1.85 2.1 2.49.75.43.76.39-.24 1.05-2.13 1.4-2.44 3.08-.85 4.67 2.45 2.45 16.15 6.23 19.03 5.26 2.9-.99 1.8-5.5-2.4-9.82l-.69-.71.6-.72c.32-.4 1.04-1.18 1.59-1.75 2.8-2.87 3.44-5.28 1.8-6.73-1.32-1.19-2.26-1.37-5.6-1.07m-33.22 5.45c-.35 1.28-1.6 2.37-2.72 2.37-.5 0-.5.02-.04.55.9 1.06.91 3.15 0 4-.28.28-.33.43-.13.43.96 0 2.4 1.46 2.58 2.63.08.53.06.53.64.02a3.13 3.13 0 0 1 4.22.12c.54.5.58.51.58.27 0-1.03.8-2.21 1.84-2.73l.69-.34-.36-.52c-.76-1.1-.76-3.17 0-3.8.25-.2.2-.28-.34-.54a3.37 3.37 0 0 1-1.79-2.5l-.07-.46-.22.2c-1.12 1.03-3.11 1-4.34-.08l-.35-.31-.2.7m3.4 1.9c1.73.6 2.61 2.97 1.69 4.55-1.68 2.86-5.98 1.8-6.02-1.5a3.21 3.21 0 0 1 4.33-3.05m12.8 10.8c-.92.23-1.36 2.14-.88 3.82.2.67.2.66-.47.47-3.4-.97-5.14.99-4.04 4.53 1.67 5.36 7.02 14.21 9.28 15.34 2.6 1.3 4.98-2.4 5.25-8.15l.07-1.42.63-.07a32.2 32.2 0 0 1 2.22-.08c5.35-.04 7.56-1.95 6.1-5.26-.43-.96-3.69-3.91-5.67-5.13-3.87-2.37-10.52-4.52-12.49-4.05m-29.57.26c-2.1.3-7.7 2.64-11.92 4.96-4.1 2.26-5.62 3.95-4.92 5.49.95 2.08 4.22 3.6 8.4 3.89l1.01.07.06.43c.04.24.05 1.56.03 2.93-.06 4.93 1 6.6 3.94 6.14 2.1-.32 5.68-4.05 7.98-8.28 1.61-2.99 2.97-6.84 3.1-8.83.12-1.62-1.24-2.29-3.71-1.83-.76.14-.73.17-.47-.6 1.01-2.98-.46-4.82-3.5-4.37m12.7 6.88c-1.63.29-2.94 2.37-4.63 7.34-1.98 5.83-2.95 10.94-2.38 12.6.98 2.84 5.44 1.83 9.7-2.2l.87-.81.57.48c.31.26 1.07.97 1.68 1.56 3.72 3.61 6.36 3.85 7.81.7.67-1.44.23-6.52-.83-9.74-1.7-5.17-4.6-9.95-6.03-9.95-.8 0-2.03 1-2.72 2.23-.36.65-.32.66-.77-.13-.88-1.55-2.05-2.3-3.26-2.08"/></g></svg>